<svg xmlns="http://www.w3.org/2000/svg" xmlns:xlink="http://www.w3.org/1999/xlink" width="24" height="24" viewBox="0 0 24 24">
    <defs>
        <path id="a" d="M11.586 22.5c1.1 0 1.99-.89 1.99-1.99h-3.98c0 1.1.89 1.99 1.99 1.99zm8.29-4.71l-1.29-1.29v-6c0-3.35-2.36-6.15-5.5-6.83V2.5c0-.83-.67-1.5-1.5-1.5s-1.5.67-1.5 1.5v1.17c-3.14.68-5.5 3.48-5.5 6.83v6l-1.29 1.29c-.63.63-.19 1.71.7 1.71h15.17c.9 0 1.34-1.08.71-1.71z"/>
    </defs>
    <use fill="#9B9B9B" fill-rule="evenodd" xlink:href="#a"/>
</svg>
