<svg fill="currentColor" xmlns="http://www.w3.org/2000/svg" xmlns:xlink="http://www.w3.org/1999/xlink" width="24" height="24" viewBox="0 0 24 24">
    <defs>
        <path id="order" d="M7.996 18c-1.1 0-1.99.9-1.99 2s.89 2 1.99 2 2-.9 2-2-.9-2-2-2zm-6-15c0 .55.45 1 1 1h1l3.6 7.59-1.35 2.44c-.73 1.34.23 2.97 1.75 2.97h11c.55 0 1-.45 1-1s-.45-1-1-1h-11l1.1-2h7.45c.75 0 1.41-.41 1.75-1.03l3.58-6.49a.996.996 0 0 0-.87-1.48h-14.8l-.67-1.43a.993.993 0 0 0-.9-.57h-1.64c-.55 0-1 .45-1 1zm16 15c-1.1 0-1.99.9-1.99 2s.89 2 1.99 2 2-.9 2-2-.9-2-2-2z"/>
    </defs>
    <use fill="inherit" fill-rule="evenodd" xlink:href="#order"/>
</svg>
